<svg xmlns="http://www.w3.org/2000/svg" viewBox="0 0 100 100" width="100" height="100" role="img" aria-label="TenTenLoupe">
  <g>
    <path d="M50 50 L97 50 A47 47 0 0 1 73.5 90.7 Z" fill="#8a6a2f"></path>
    <path d="M50 50 L73.5 90.7 A47 47 0 0 1 26.5 90.7 Z" fill="#b08c46"></path>
    <path d="M50 50 L26.5 90.7 A47 47 0 0 1 3 50 Z" fill="#8a6a2f"></path>
    <path d="M50 50 L3 50 A47 47 0 0 1 26.5 9.3 Z" fill="#b08c46"></path>
    <path d="M50 50 L26.5 9.3 A47 47 0 0 1 73.5 9.3 Z" fill="#8a6a2f"></path>
    <path d="M50 50 L73.5 9.3 A47 47 0 0 1 97 50 Z" fill="#b08c46"></path>
    <path d="M83 50 L66.5 78.58 L33.5 78.58 L17 50 L33.5 21.42 L66.5 21.42 Z" fill="#f4f1ea"></path>
    <line x1="50" y1="50" x2="30.95" y2="39" stroke="#14202e" stroke-width="2.4" stroke-linecap="round"></line>
    <line x1="50" y1="50" x2="75.11" y2="35.5" stroke="#14202e" stroke-width="2" stroke-linecap="round"></line>
    <circle cx="50" cy="50" r="3.4" fill="#c9a25e"></circle>
    <circle cx="50" cy="50" r="48" fill="none" stroke="#8a6a2f" stroke-width="2"></circle>
  </g>
</svg>